<svg width="226" height="59" viewBox="0 0 226 59" fill="none" xmlns="http://www.w3.org/2000/svg">
<path d="M11.088 58.408C10.608 58.408 10.2 58.264 9.864 57.976C7.656 56.104 6.312 54.28 5.832 52.504C5.496 51.448 5.328 50.032 5.328 48.256C5.328 40.864 7.872 30.88 12.96 18.304C15.264 12.496 16.416 9.376 16.416 8.944C16.416 8.848 15.672 8.8 14.184 8.8C11.88 8.944 9.744 9.232 7.776 9.664C6.432 10 5.28 10.432 4.32 10.96C3.36 11.44 2.88 11.872 2.88 12.256C2.88 12.64 2.76 12.952 2.52 13.192C2.328 13.384 2.112 13.48 1.872 13.48L1.656 13.408C1.272 13.12 0.96 12.736 0.72 12.256C0.48 11.776 0.36 11.224 0.36 10.6C0.36 10.264 0.408 9.808 0.504 9.232C0.744 7.648 1.32 6.4 2.232 5.488C3.192 4.576 4.68 3.784 6.696 3.112C9.288 2.152 12.408 1.672 16.056 1.672C18.216 1.672 20.832 1.792 23.904 2.032C27.456 2.272 30.528 2.392 33.12 2.392C38.208 2.392 41.592 1.912 43.272 0.951996C43.56 0.759996 43.824 0.663996 44.064 0.663996C44.688 0.663996 45.024 1.336 45.072 2.68C45.024 4.264 44.352 5.68 43.056 6.928C41.808 8.176 40.2 9.04 38.232 9.52C37.32 9.712 35.784 9.808 33.624 9.808L25.2 9.52C24.864 10.72 24.528 11.92 24.192 13.12C23.904 14.272 23.352 16.12 22.536 18.664C21.768 21.16 20.928 23.8 20.016 26.584C17.472 34.12 15.744 39.952 14.832 44.08C14.016 47.536 13.608 50.464 13.608 52.864C13.608 53.392 13.632 53.872 13.68 54.304C13.728 55.072 13.752 56.008 13.752 57.112C13.656 57.736 13.008 58.144 11.808 58.336L11.088 58.408ZM27.7976 48.688L28.3736 48.544C29.6696 48.016 30.8696 46.888 31.9736 45.16C32.9336 43.672 33.7016 42.016 34.2776 40.192C34.7096 38.944 34.9256 37.936 34.9256 37.168V36.304C34.8776 35.824 34.4936 35.104 33.7736 34.144C33.4376 33.664 33.1496 33.184 32.9096 32.704C32.7176 32.176 32.6216 31.792 32.6216 31.552C32.6216 31.312 32.5736 31.192 32.4776 31.192C32.1896 31.192 31.7576 31.648 31.1816 32.56C30.6056 33.424 30.0296 34.48 29.4536 35.728C28.9256 36.928 28.4936 38.128 28.1576 39.328C27.6776 41.056 27.4376 43.288 27.4376 46.024C27.4376 47.8 27.5576 48.688 27.7976 48.688ZM28.0856 52.432C27.6056 52.432 27.1016 52.336 26.5736 52.144C25.7096 51.76 24.7496 50.992 23.6936 49.84C21.7736 47.824 20.5976 45.832 20.1656 43.864C20.0696 43.384 20.0216 42.712 20.0216 41.848C20.0216 37.432 21.1016 33.592 23.2616 30.328C25.2776 27.304 27.5576 25.648 30.1016 25.36C30.6296 25.36 31.1336 25.432 31.6136 25.576C33.1976 26.056 34.6136 26.968 35.8616 28.312C37.1576 29.656 37.9736 31.12 38.3096 32.704C38.4056 33.136 38.5256 33.424 38.6696 33.568C38.8136 33.712 39.0296 33.784 39.3176 33.784C40.0856 33.784 41.1416 33.592 42.4856 33.208C43.8776 32.776 45.1016 32.056 46.1576 31.048C47.4056 29.752 48.2456 29.104 48.6776 29.104C49.1096 29.104 49.5176 29.296 49.9016 29.68C50.0936 29.872 50.1896 30.064 50.1896 30.256C50.1896 30.352 50.1416 30.448 50.0456 30.544C49.9976 30.592 49.8296 30.808 49.5416 31.192C49.3016 31.528 49.0136 31.912 48.6776 32.344C47.6696 33.544 46.2776 34.624 44.5016 35.584C42.7256 36.496 41.3096 37.024 40.2536 37.168L38.5976 37.384L38.0216 40.048C37.0616 44.08 35.4536 47.296 33.1976 49.696C31.4696 51.52 29.7656 52.432 28.0856 52.432ZM49.6328 44.512L51.5768 41.92C54.7448 37.312 56.7128 34.504 57.4808 33.496C58.0568 32.728 58.3448 32.104 58.3448 31.624C58.3448 31.192 58.1048 30.88 57.6248 30.688C57.0008 30.688 56.1848 31.336 55.1768 32.632C54.2168 33.928 53.2568 35.488 52.2968 37.312C51.3848 39.136 50.6648 40.912 50.1368 42.64L49.6328 44.512ZM64.9688 52C63.8648 52 62.7368 51.592 61.5848 50.776C59.8088 49.336 58.5608 47.728 57.8408 45.952C57.6488 45.28 57.5527 44.176 57.5527 42.64C57.5527 41.728 57.6248 40.744 57.7688 39.688C53.7368 46.552 51.2887 50.416 50.4248 51.28C49.7528 51.76 49.0328 52 48.2648 52C47.6888 52 47.2328 51.88 46.8967 51.64C46.1287 51.112 45.1927 50.008 44.0887 48.328C43.1767 46.984 42.7207 45.256 42.7207 43.144C42.7207 41.8 42.8887 40.36 43.2247 38.824C43.5607 37.24 44.2087 35.44 45.1687 33.424C46.1287 31.408 47.0407 29.824 47.9048 28.672C48.6728 27.76 49.5608 26.992 50.5688 26.368C51.6248 25.744 52.5128 25.408 53.2328 25.36C53.9528 25.408 54.8888 25.768 56.0408 26.44C57.1928 27.064 58.1528 27.808 58.9208 28.672L60.0728 29.968L60.5048 29.536C61.6568 25.6 62.7608 22.144 63.8168 19.168C66.6488 10.864 68.8088 6.712 70.2968 6.712C71.1128 6.712 72.0728 7.192 73.1768 8.152C74.2808 9.112 75.0008 10.096 75.3368 11.104V11.32C75.3368 12.136 74.9288 14.032 74.1128 17.008C73.2968 19.984 72.2168 23.44 70.8728 27.376C67.8008 36.304 65.8808 43.264 65.1128 48.256L65.9767 47.392C66.8888 46.528 68.3288 44.776 70.2968 42.136C72.2648 39.448 74.0648 36.856 75.6968 34.36C76.5608 33.112 77.3048 32.008 77.9288 31.048C78.6008 30.04 78.9848 29.536 79.0808 29.536C79.2248 29.536 79.5608 29.752 80.0888 30.184C80.4728 30.472 80.6888 30.664 80.7368 30.76C80.7368 30.904 80.6408 31.168 80.4488 31.552C75.7928 39.808 72.0248 45.856 69.1448 49.696C67.8008 51.232 66.4088 52 64.9688 52ZM82.0086 48.688L82.5846 48.544C83.8806 48.016 85.0806 46.888 86.1846 45.16C87.1446 43.672 87.9126 42.016 88.4886 40.192C88.9206 38.944 89.1366 37.936 89.1366 37.168V36.304C89.0886 35.824 88.7046 35.104 87.9846 34.144C87.6486 33.664 87.3606 33.184 87.1206 32.704C86.9286 32.176 86.8326 31.792 86.8326 31.552C86.8326 31.312 86.7846 31.192 86.6886 31.192C86.4006 31.192 85.9686 31.648 85.3926 32.56C84.8166 33.424 84.2406 34.48 83.6646 35.728C83.1366 36.928 82.7046 38.128 82.3686 39.328C81.8886 41.056 81.6486 43.288 81.6486 46.024C81.6486 47.8 81.7686 48.688 82.0086 48.688ZM82.2966 52.432C81.8166 52.432 81.3126 52.336 80.7846 52.144C79.9206 51.76 78.9606 50.992 77.9046 49.84C75.9846 47.824 74.8086 45.832 74.3766 43.864C74.2806 43.384 74.2326 42.712 74.2326 41.848C74.2326 37.432 75.3126 33.592 77.4726 30.328C79.4886 27.304 81.7686 25.648 84.3126 25.36C84.8406 25.36 85.3446 25.432 85.8246 25.576C87.4086 26.056 88.8246 26.968 90.0726 28.312C91.3686 29.656 92.1846 31.12 92.5206 32.704C92.6166 33.136 92.7366 33.424 92.8806 33.568C93.0246 33.712 93.2406 33.784 93.5286 33.784C94.2966 33.784 95.3526 33.592 96.6966 33.208C98.0886 32.776 99.3126 32.056 100.369 31.048C101.617 29.752 102.457 29.104 102.889 29.104C103.321 29.104 103.729 29.296 104.113 29.68C104.305 29.872 104.401 30.064 104.401 30.256C104.401 30.352 104.353 30.448 104.257 30.544C104.209 30.592 104.041 30.808 103.753 31.192C103.513 31.528 103.225 31.912 102.889 32.344C101.881 33.544 100.489 34.624 98.7126 35.584C96.9366 36.496 95.5206 37.024 94.4646 37.168L92.8086 37.384L92.2326 40.048C91.2726 44.08 89.6646 47.296 87.4086 49.696C85.6806 51.52 83.9766 52.432 82.2966 52.432ZM105.212 48.688L105.788 48.544C107.084 48.016 108.284 46.888 109.388 45.16C110.348 43.672 111.116 42.016 111.692 40.192C112.124 38.944 112.34 37.936 112.34 37.168V36.304C112.292 35.824 111.908 35.104 111.188 34.144C110.852 33.664 110.564 33.184 110.324 32.704C110.132 32.176 110.036 31.792 110.036 31.552C110.036 31.312 109.988 31.192 109.892 31.192C109.604 31.192 109.172 31.648 108.596 32.56C108.02 33.424 107.444 34.48 106.868 35.728C106.34 36.928 105.908 38.128 105.572 39.328C105.092 41.056 104.852 43.288 104.852 46.024C104.852 47.8 104.972 48.688 105.212 48.688ZM105.5 52.432C105.02 52.432 104.516 52.336 103.988 52.144C103.124 51.76 102.164 50.992 101.108 49.84C99.1877 47.824 98.0117 45.832 97.5797 43.864C97.4837 43.384 97.4357 42.712 97.4357 41.848C97.4357 37.432 98.5157 33.592 100.676 30.328C102.692 27.304 104.972 25.648 107.516 25.36C108.044 25.36 108.548 25.432 109.028 25.576C110.612 26.056 112.028 26.968 113.276 28.312C114.572 29.656 115.388 31.12 115.724 32.704C115.82 33.136 115.94 33.424 116.084 33.568C116.228 33.712 116.444 33.784 116.732 33.784C117.5 33.784 118.556 33.592 119.9 33.208C121.292 32.776 122.516 32.056 123.572 31.048C124.82 29.752 125.66 29.104 126.092 29.104C126.524 29.104 126.932 29.296 127.316 29.68C127.508 29.872 127.604 30.064 127.604 30.256C127.604 30.352 127.556 30.448 127.46 30.544C127.412 30.592 127.244 30.808 126.956 31.192C126.716 31.528 126.428 31.912 126.092 32.344C125.084 33.544 123.692 34.624 121.916 35.584C120.14 36.496 118.724 37.024 117.668 37.168L116.012 37.384L115.436 40.048C114.476 44.08 112.868 47.296 110.612 49.696C108.884 51.52 107.18 52.432 105.5 52.432ZM127.047 44.512L128.991 41.92C132.159 37.312 134.127 34.504 134.895 33.496C135.471 32.728 135.759 32.104 135.759 31.624C135.759 31.192 135.519 30.88 135.039 30.688C134.415 30.688 133.599 31.336 132.591 32.632C131.631 33.928 130.671 35.488 129.711 37.312C128.799 39.136 128.079 40.912 127.551 42.64L127.047 44.512ZM142.383 52C141.279 52 140.151 51.592 138.999 50.776C137.223 49.336 135.975 47.728 135.255 45.952C135.063 45.28 134.967 44.176 134.967 42.64C134.967 41.728 135.039 40.744 135.183 39.688C131.151 46.552 128.703 50.416 127.839 51.28C127.167 51.76 126.447 52 125.679 52C125.103 52 124.647 51.88 124.311 51.64C123.543 51.112 122.607 50.008 121.503 48.328C120.591 46.984 120.135 45.256 120.135 43.144C120.135 41.8 120.303 40.36 120.639 38.824C120.975 37.24 121.623 35.44 122.583 33.424C123.543 31.408 124.455 29.824 125.319 28.672C126.087 27.76 126.975 26.992 127.983 26.368C129.039 25.744 129.927 25.408 130.647 25.36C131.367 25.408 132.303 25.768 133.455 26.44C134.607 27.064 135.567 27.808 136.335 28.672L137.487 29.968L137.919 29.536C139.071 25.6 140.175 22.144 141.231 19.168C144.063 10.864 146.223 6.712 147.711 6.712C148.527 6.712 149.487 7.192 150.591 8.152C151.695 9.112 152.415 10.096 152.751 11.104V11.32C152.751 12.136 152.343 14.032 151.527 17.008C150.711 19.984 149.631 23.44 148.287 27.376C145.215 36.304 143.295 43.264 142.527 48.256L143.391 47.392C144.303 46.528 145.743 44.776 147.711 42.136C149.679 39.448 151.479 36.856 153.111 34.36C153.975 33.112 154.719 32.008 155.343 31.048C156.015 30.04 156.399 29.536 156.495 29.536C156.639 29.536 156.975 29.752 157.503 30.184C157.887 30.472 158.103 30.664 158.151 30.76C158.151 30.904 158.055 31.168 157.863 31.552C153.207 39.808 149.439 45.856 146.559 49.696C145.215 51.232 143.823 52 142.383 52ZM159.927 52C158.871 52 157.743 51.592 156.543 50.776C153.903 48.616 152.583 46.168 152.583 43.432C152.583 41.704 152.727 40.096 153.015 38.608C153.447 36.592 154.263 33.592 155.463 29.608C159.927 14.344 163.215 6.712 165.327 6.712C166.143 6.712 167.103 7.192 168.207 8.152C169.311 9.112 170.007 10.096 170.295 11.104C170.295 12.064 169.887 14.032 169.071 17.008C168.255 19.984 167.175 23.44 165.831 27.376C164.487 31.312 163.311 35.104 162.303 38.752C161.103 42.928 160.383 46.096 160.143 48.256C161.583 46.816 163.311 44.752 165.327 42.064C168.015 38.464 170.631 34.624 173.175 30.544C173.655 29.824 173.943 29.464 174.039 29.464C174.183 29.464 174.519 29.68 175.047 30.112C175.431 30.4 175.647 30.592 175.695 30.688C175.695 30.88 174.855 32.488 173.175 35.512C170.343 40.696 167.319 45.424 164.103 49.696C162.807 51.232 161.415 52 159.927 52ZM179.087 37.528L180.527 36.952C182.399 36.088 183.647 34.888 184.271 33.352C184.511 32.872 184.631 32.056 184.631 30.904C184.631 29.944 184.487 29.344 184.199 29.104C183.815 29.104 183.311 29.392 182.687 29.968C182.111 30.496 181.607 31.168 181.175 31.984C180.791 32.752 180.311 33.856 179.735 35.296C179.303 36.448 179.087 37.168 179.087 37.456V37.528ZM178.799 52.072H178.367C177.215 52.072 176.087 51.88 174.983 51.496C173.927 51.064 172.967 50.368 172.103 49.408C171.191 48.448 170.591 47.416 170.303 46.312C169.967 45.208 169.799 43.888 169.799 42.352C169.799 39.184 170.279 36.256 171.239 33.568C173.447 28.048 176.423 25.264 180.167 25.216C182.711 25.312 184.583 26.224 185.783 27.952C186.647 29.248 187.079 30.64 187.079 32.128C187.079 32.656 186.935 33.592 186.647 34.936C186.407 36.232 185.135 37.504 182.831 38.752C181.583 39.328 180.503 39.616 179.591 39.616H178.151L177.575 42.496C177.287 44.08 177.143 45.352 177.143 46.312C177.143 47.656 177.407 48.472 177.935 48.76C178.175 48.808 178.463 48.832 178.799 48.832C179.951 48.832 181.007 48.592 181.967 48.112C182.927 47.584 184.535 46.12 186.791 43.72C188.327 42.136 189.215 41.08 189.455 40.552C189.935 39.976 190.343 39.448 190.679 38.968C191.351 38.056 192.359 36.352 193.703 33.856C194.375 32.656 194.951 31.648 195.431 30.832C195.911 30.016 196.175 29.584 196.223 29.536C196.271 29.44 196.319 29.392 196.367 29.392C196.463 29.392 196.607 29.488 196.799 29.68C196.991 29.872 197.183 30.136 197.375 30.472C197.567 30.76 197.663 31.024 197.663 31.264C197.567 32.032 196.439 34.24 194.279 37.888C191.975 41.68 189.503 44.944 186.863 47.68C185.135 49.456 183.647 50.656 182.399 51.28C181.343 51.76 180.143 52.024 178.799 52.072ZM195.98 52.216C194.876 52.216 193.771 51.52 192.667 50.128C191.515 48.736 190.939 47.488 190.939 46.384C190.939 45.616 191.347 43.696 192.163 40.624C192.979 37.312 193.843 34.24 194.755 31.408C195.668 28.576 196.364 26.776 196.844 26.008C197.228 25.48 197.708 25.216 198.284 25.216C200.012 25.216 201.62 26.632 203.108 29.464C203.588 30.28 203.828 31 203.828 31.624C203.828 32.44 203.564 33.856 203.036 35.872V35.944C203.036 35.992 203.06 36.016 203.108 36.016C203.252 36.016 203.732 35.464 204.548 34.36C205.748 32.632 207.812 30.376 210.74 27.592C212.612 25.816 213.812 24.928 214.34 24.928C214.868 24.928 215.588 25.576 216.5 26.872C216.596 27.064 216.716 27.232 216.86 27.376C217.244 27.952 217.436 28.432 217.436 28.816C217.436 29.2 217.292 29.704 217.004 30.328C216.764 30.904 216.308 32.416 215.636 34.864L215.204 36.448L215.132 37.024C215.132 37.168 215.204 37.24 215.348 37.24C215.732 37.24 216.476 36.832 217.58 36.016C218.684 35.152 219.956 34.024 221.396 32.632C222.26 31.816 223.004 31.072 223.628 30.4C224.252 29.728 224.588 29.392 224.636 29.392C224.924 29.392 225.188 29.56 225.428 29.896C225.668 30.184 225.788 30.496 225.788 30.832C225.788 31.072 225.284 31.816 224.276 33.064C223.316 34.264 222.236 35.488 221.036 36.736C219.884 37.984 218.948 38.848 218.228 39.328C217.076 40 216.044 40.336 215.132 40.336C214.46 40.336 213.884 40.168 213.404 39.832C212.924 39.448 212.54 39.136 212.252 38.896C211.388 38.368 210.788 37.792 210.452 37.168C210.26 36.736 210.164 36.064 210.164 35.152C210.164 34.672 210.188 34.168 210.236 33.64C210.332 33.064 210.38 32.656 210.38 32.416C210.38 32.176 210.332 32.056 210.236 32.056C209.804 32.056 207.98 34.528 204.764 39.472C201.884 43.888 199.964 47.2 199.004 49.408C198.572 50.704 198.164 51.472 197.78 51.712C197.204 52.048 196.604 52.216 195.98 52.216Z" fill="black"/>
</svg>
